<svg xmlns="http://www.w3.org/2000/svg" width="1440" height="680" viewBox="0 0 1440 680" role="img" aria-labelledby="title desc">
  <title id="title">Speech-assisted sale workflow</title><desc id="desc">Speech listening, editable proposal, and confirmation with retry and manual alternatives.</desc>
  <defs><marker id="a" markerWidth="8" markerHeight="8" refX="7" refY="4" orient="auto"><path d="M0,0 L8,4 L0,8Z" fill="#16265D"/></marker></defs>
  <rect width="1440" height="680" fill="#FFFEFB"/><text x="56" y="70" font-family="Arial, sans-serif" font-size="34" font-weight="700" fill="#16265D">Speech-assisted sale: suggestion, retry, and manual fallback</text>
  <g font-family="Arial, sans-serif" text-anchor="middle"><g fill="none" stroke="#16265D" stroke-width="3" marker-end="url(#a)"><path d="M267 195H325"/><path d="M527 195H585"/><path d="M787 195H845"/><path d="M1047 195H1105"/><path d="M685 263V386H585V438" stroke-dasharray="8 8"/><path d="M945 263V386H945V438" stroke-dasharray="8 8"/><path d="M1046 491H1104" stroke-dasharray="8 8"/></g><g font-size="21" font-weight="700" fill="#16265D"><rect x="65" y="134" width="202" height="126" rx="10" fill="#F2F6F0" stroke="#2D7A3D"/><text x="166" y="184">Home</text><text x="166" y="217" font-size="17" font-weight="400">Tap Use speech</text><rect x="325" y="134" width="202" height="126" rx="10" fill="#F2F6F0" stroke="#2D7A3D"/><text x="426" y="184">Use speech</text><text x="426" y="217" font-size="17" font-weight="400">Listening / transcript</text><rect x="585" y="134" width="202" height="126" rx="10" fill="#F2F6F0" stroke="#2D7A3D"/><text x="686" y="184">Review speech</text><text x="686" y="217" font-size="17" font-weight="400">Suggested, editable values</text><rect x="845" y="134" width="202" height="126" rx="10" fill="#F2F6F0" stroke="#2D7A3D"/><text x="946" y="184">Confirm sale</text><text x="946" y="217" font-size="17" font-weight="400">Record created only now</text><rect x="1105" y="134" width="270" height="126" rx="10" fill="#2D7A3D"/><text x="1240" y="184" fill="#FFF">Sale saved locally</text><text x="1240" y="217" font-size="17" font-weight="400" fill="#FFF">Route Home</text><rect x="485" y="438" width="202" height="106" rx="10" fill="#FFF7F5" stroke="#C83E35"/><text x="586" y="478">Speech unavailable</text><text x="586" y="510" font-size="17" font-weight="400">Try again or enter manually</text><rect x="844" y="438" width="202" height="106" rx="10" fill="#F2F6F0" stroke="#2D7A3D"/><text x="945" y="478">Record again</text><text x="945" y="510" font-size="17" font-weight="400">Replace voice message</text></g></g>
</svg>
